<?xml version="1.0" encoding="UTF-8"?>
<svg id="Layer_1" xmlns="http://www.w3.org/2000/svg" xmlns:xlink="http://www.w3.org/1999/xlink" version="1.1" viewBox="0 0 31.9 32">
  <!-- Generator: Adobe Illustrator 29.3.1, SVG Export Plug-In . SVG Version: 2.1.0 Build 151)  -->
  <defs>
    <style>
      .st0 {
        fill: url(#linear-gradient2);
      }

      .st1 {
        fill: url(#linear-gradient1);
      }

      .st2 {
        fill: url(#linear-gradient);
      }
    </style>
    <linearGradient id="linear-gradient" x1="6.3" y1="5.6" x2="24" y2="24.7" gradientUnits="userSpaceOnUse">
      <stop offset="0" stop-color="#41d1ff"/>
      <stop offset="1" stop-color="#bd34fe"/>
    </linearGradient>
    <linearGradient id="linear-gradient1" x1="3.9" y1="11.9" x2="18.4" y2="11.9" gradientUnits="userSpaceOnUse">
      <stop offset="0" stop-color="#ffea83"/>
      <stop offset="0" stop-color="#ffdd35"/>
      <stop offset="1" stop-color="#ffa800"/>
    </linearGradient>
    <linearGradient id="linear-gradient2" x1="18" y1="22.1" x2="26.9" y2="22.1" xlink:href="#linear-gradient1"/>
  </defs>
  <circle class="st2" cx="15.9" cy="16" r="15.4"/>
  <g>
    <path class="st1" d="M6.9,17.9L3.9,6h1.6l1.4,6c.4,1.5.7,3,.9,4.1h0c.2-1.2.6-2.6,1-4.1l1.6-6h1.6l1.4,6c.3,1.4.7,2.8.8,4.1h0c.2-1.3.6-2.6,1-4.1l1.6-6h1.6l-3.4,11.9h-1.6l-1.5-6.2c-.4-1.5-.6-2.7-.8-3.9h0c-.2,1.2-.5,2.3-.9,3.9l-1.7,6.2h-1.6Z"/>
    <path class="st0" d="M19.6,16.1v5h5.8v-5h1.6v11.9h-1.6v-5.6h-5.8v5.6h-1.5v-11.9h1.5Z"/>
  </g>
</svg>